<?xml version="1.0" standalone="no"?>
<!DOCTYPE svg PUBLIC "-//W3C//DTD SVG 20010904//EN"
 "http://www.w3.org/TR/2001/REC-SVG-20010904/DTD/svg10.dtd">
<svg version="1.0" xmlns="http://www.w3.org/2000/svg"
 width="236.000000pt" height="201.000000pt" viewBox="0 0 236.000000 201.000000"
 preserveAspectRatio="xMidYMid meet">
<metadata>
Created by potrace 1.13, written by Peter Selinger 2001-2015
</metadata>
<g transform="translate(0.000000,201.000000) scale(0.100000,-0.100000)"
fill="#000000" stroke="none">
<path d="M772 1962 c-10 -3 -10 -7 -2 -17 9 -11 7 -14 -9 -12 -11 0 -19 6 -18
11 4 19 -30 16 -57 -5 -26 -20 -28 -27 -24 -71 5 -43 2 -51 -21 -68 -14 -11
-21 -20 -14 -20 15 0 83 59 83 72 0 6 -7 8 -14 5 -10 -4 -13 -1 -9 9 3 8 0 20
-6 28 -9 10 -7 17 4 26 14 11 19 10 37 -8 l21 -20 -22 -37 c-24 -42 -27 -52
-7 -36 10 9 24 0 65 -41 42 -43 51 -59 51 -88 0 -44 12 -63 36 -58 14 2 18 13
19 46 1 45 17 65 43 54 10 -3 13 -1 8 6 -7 12 27 35 38 25 12 -12 5 12 -8 30
-9 12 -16 14 -21 7 -3 -5 -11 -8 -16 -4 -6 3 -2 12 10 21 12 8 21 20 21 28 0
8 6 12 14 9 8 -3 12 -12 10 -19 -3 -7 5 -22 17 -34 14 -13 18 -21 9 -21 -14 0
-5 -14 11 -16 5 -1 12 -3 17 -4 4 -2 14 -3 22 -4 29 -2 16 -31 -15 -32 -29 -2
-29 -2 -2 3 15 2 27 7 27 11 0 12 -62 6 -70 -7 -5 -9 -9 -10 -14 -2 -4 6 -2
11 3 11 6 0 11 5 11 12 0 9 -3 9 -12 0 -15 -15 -17 -120 -2 -126 17 -6 94 5
94 14 0 13 -40 19 -41 7 -1 -7 -4 2 -8 18 -8 35 -4 46 9 25 8 -13 11 -13 23 0
30 32 71 180 46 164 -8 -5 -10 -3 -4 7 17 26 13 50 -7 43 -13 -4 -16 -1 -12
10 7 17 1 19 -33 10 -13 -4 -23 -13 -23 -21 0 -10 6 -12 23 -8 22 7 22 7 2 -8
-18 -15 -21 -14 -30 6 -5 12 -14 25 -20 29 -5 4 6 8 25 8 22 0 31 3 24 10 -9
9 -174 -3 -193 -15 -5 -3 -13 -1 -16 5 -4 6 -16 8 -28 4 -19 -6 -20 -5 -9 8
10 13 9 16 -5 20 -10 3 -24 3 -31 0z"/>
<path d="M1939 1959 c-12 -8 -12 -11 1 -18 8 -6 12 -12 9 -15 -3 -3 -15 3 -27
14 -27 25 -33 25 -66 -1 -23 -18 -27 -28 -25 -65 2 -34 -2 -49 -21 -69 -36
-39 -5 -30 42 13 23 20 38 31 34 25 -4 -7 -3 -13 2 -13 16 0 82 -72 75 -83 -3
-6 -1 -7 4 -4 17 11 31 -15 35 -63 3 -40 6 -45 28 -45 19 0 24 5 23 20 -2 11
-1 34 2 51 5 27 9 31 27 26 18 -4 20 -2 16 16 -4 16 -2 19 10 15 10 -4 13 -2
8 5 -4 7 -3 12 3 12 5 0 11 -6 14 -12 2 -7 8 -9 13 -5 11 11 -23 37 -50 38
-17 0 -16 2 7 11 15 5 27 17 27 27 0 10 7 18 15 18 10 0 13 -7 9 -23 -4 -15 0
-25 12 -32 17 -9 17 -11 -1 -38 -21 -33 -28 -131 -9 -138 18 -7 94 5 94 15 0
8 -22 13 -42 11 -3 -1 -9 5 -12 13 -3 10 1 15 13 15 25 0 44 25 37 48 -5 13
-14 18 -31 16 -14 -1 -25 3 -25 9 0 7 -5 4 -11 -5 -5 -10 -15 -18 -20 -18 -6
0 -3 8 7 18 19 18 58 26 47 9 -4 -7 1 -8 12 -3 11 4 22 2 26 -5 4 -8 14 9 23
41 18 61 20 73 8 66 -5 -3 -6 8 -4 25 4 24 1 28 -12 23 -11 -4 -15 -2 -11 7 7
20 -45 41 -82 33 -17 -3 -48 -7 -69 -8 -70 -5 -75 -6 -69 -16 8 -13 72 -13 80
0 4 6 11 7 18 3 14 -8 -18 -21 -55 -22 -30 -1 -48 -25 -48 -63 0 -18 -2 -20
-10 -8 -8 12 -10 11 -10 -7 0 -18 -6 -23 -25 -23 -17 0 -25 5 -24 18 0 10 3
12 6 5 8 -22 35 -15 28 7 -5 14 -2 20 9 20 9 0 16 7 16 16 0 12 -7 14 -31 9
-23 -5 -30 -4 -24 5 4 7 20 10 36 8 30 -5 33 -1 23 26 -5 14 -8 14 -27 1 -31
-21 -44 -19 -17 3 13 10 20 23 17 29 -10 15 -43 22 -58 12z"/>
<path d="M114 1950 c-25 -10 -45 -59 -37 -90 4 -16 9 -18 19 -9 9 7 10 18 4
34 -7 18 -4 27 15 43 14 12 27 17 30 12 3 -4 0 -10 -6 -12 -8 -3 -6 -10 6 -21
14 -14 15 -20 5 -32 -7 -8 -17 -15 -23 -15 -5 0 -29 -18 -53 -40 -24 -22 -37
-40 -29 -40 7 0 29 15 48 33 l35 32 43 -44 c24 -24 43 -48 41 -53 -1 -5 2 -7
7 -4 15 10 29 -18 33 -64 3 -40 6 -45 27 -45 22 0 25 4 25 45 1 36 5 45 21 48
23 5 46 33 37 47 -3 5 1 4 10 -3 10 -8 18 -9 22 -3 8 12 -30 34 -44 26 -5 -3
-11 -1 -14 4 -3 5 3 11 14 14 10 3 21 0 24 -7 2 -6 3 3 1 21 -3 25 0 31 14 30
12 -1 17 -7 13 -19 -2 -10 1 -25 9 -34 18 -22 20 -61 3 -68 -10 -4 -13 -2 -8
7 4 6 4 9 -1 5 -10 -10 -14 -117 -4 -123 12 -8 99 7 99 16 0 5 -13 9 -30 9
-26 0 -30 3 -29 28 0 15 3 21 6 15 14 -37 59 9 48 50 -4 15 -3 18 3 9 7 -11
12 -6 21 19 6 17 11 40 11 50 0 11 4 19 9 19 5 0 4 -20 -1 -45 -6 -29 -6 -55
0 -73 l10 -27 1 35 c1 19 4 60 7 90 3 30 2 51 -3 45 -17 -21 -29 -13 -25 16 4
24 1 28 -12 23 -12 -5 -15 -2 -10 10 4 12 0 16 -16 16 -11 0 -18 -4 -15 -10 3
-6 -1 -7 -9 -4 -11 4 -16 0 -16 -11 0 -12 6 -15 23 -10 20 5 20 5 -3 -9 -23
-13 -25 -13 -28 2 -2 9 -11 23 -20 30 -14 10 -11 12 16 12 18 0 32 5 32 11 0
7 -19 8 -57 4 -107 -11 -133 -17 -133 -27 0 -6 -8 -4 -19 6 -10 9 -24 15 -32
13 -8 -2 -11 -2 -6 0 16 10 6 23 -18 23 -26 0 -34 -15 -12 -23 7 -4 6 -6 -4
-6 -9 -1 -22 6 -29 14 -14 17 -17 17 -46 5z"/>
<path d="M1273 1945 c-26 -18 -38 -67 -24 -94 9 -16 6 -24 -20 -45 -17 -14
-28 -26 -25 -26 17 0 58 27 71 47 l16 23 40 -40 c22 -22 38 -44 34 -50 -3 -5
0 -7 8 -4 20 7 45 -35 49 -82 2 -31 7 -40 25 -42 20 -3 22 2 25 50 3 48 5 53
26 51 24 -3 31 21 10 31 -7 3 -2 3 11 0 18 -5 22 -3 17 7 -4 8 -1 6 7 -4 13
-15 15 -15 20 -2 7 16 -27 40 -43 30 -5 -3 -11 -1 -14 4 -3 5 3 11 14 14 10 3
21 0 24 -7 3 -6 3 3 0 21 -4 27 -2 32 14 30 13 -1 17 -7 14 -22 -2 -12 3 -27
12 -34 8 -7 12 -19 9 -27 -3 -9 0 -14 7 -12 7 2 15 -4 17 -12 3 -12 2 -12 -5
-2 -7 10 -11 10 -22 -3 -7 -9 -19 -14 -27 -11 -9 4 -11 1 -7 -6 4 -6 8 -32 8
-57 1 -37 4 -46 19 -45 9 0 33 1 52 2 25 2 33 6 29 16 -4 11 -12 13 -30 6 -22
-9 -24 -7 -23 23 0 17 3 26 6 20 10 -26 30 -12 51 37 29 65 41 121 32 145 -4
11 -6 23 -3 27 2 5 -8 3 -23 -2 -15 -6 -29 -9 -31 -6 -3 2 5 7 16 11 12 3 21
11 21 16 0 12 -27 12 -51 -1 -13 -7 -25 -8 -37 -1 -14 9 -11 10 16 11 17 0 32
5 32 10 0 7 -22 9 -62 5 -99 -9 -128 -15 -128 -25 0 -13 56 -13 80 0 12 6 21
6 25 1 3 -5 -15 -13 -39 -16 -49 -8 -63 -18 -66 -50 -4 -37 0 -45 23 -46 12 0
16 -3 9 -6 -6 -2 -10 -9 -6 -14 3 -5 1 -9 -4 -9 -5 0 -15 11 -22 25 -11 21
-15 23 -22 10 -10 -17 -44 -20 -54 -4 -3 6 -1 16 6 22 9 9 11 8 8 -3 -2 -8 4
-15 12 -15 9 0 14 7 12 18 -2 10 3 16 10 15 17 -4 23 59 7 78 -7 9 -20 12 -33
8 -18 -6 -19 -5 -7 10 12 14 10 16 -13 16 -27 0 -35 -15 -13 -23 7 -4 6 -6 -4
-6 -9 -1 -22 6 -29 14 -16 19 -30 19 -57 0z"/>
<path d="M63 1546 c4 -10 1 -13 -7 -10 -8 3 -17 1 -20 -5 -4 -6 -13 -8 -21 -4
-8 3 -15 0 -15 -7 0 -6 4 -8 10 -5 5 3 10 -1 10 -9 0 -10 9 -16 24 -16 14 0
28 -5 32 -11 4 -8 -4 -9 -27 -4 -25 4 -30 3 -19 -4 12 -9 13 -11 1 -11 -15 0
-6 -14 10 -16 5 -1 11 -3 14 -4 3 -1 10 -3 17 -4 18 -2 21 -25 4 -32 -9 -3
-24 -3 -33 1 -10 3 -20 6 -23 5 -3 0 -8 16 -11 37 -3 21 -6 -20 -7 -90 -2
-118 -1 -128 15 -125 13 2 19 15 21 43 4 45 17 65 41 65 14 -1 14 -2 -1 -11
-24 -14 -23 -29 2 -29 16 0 19 5 16 24 -2 14 -1 27 2 29 4 2 1 2 -6 1 -16 -5
34 62 53 70 20 7 27 -8 25 -57 -3 -66 -1 -75 9 -57 26 45 23 78 -13 128 l-35
50 21 22 c17 18 23 20 34 8 14 -14 9 -58 -7 -58 -17 0 -9 -19 22 -49 17 -17
37 -31 45 -31 7 0 -3 16 -24 36 -20 20 -32 33 -25 30 6 -4 14 2 18 13 10 32
-6 71 -35 86 -25 13 -30 13 -53 -5 -16 -13 -28 -16 -32 -10 -3 5 -1 10 4 10 6
0 11 5 11 10 0 6 -12 10 -26 10 -19 0 -25 -4 -21 -14z"/>
<path d="M651 1543 c12 -15 12 -16 -3 -10 -26 9 -22 -8 5 -21 12 -6 16 -11 8
-11 -8 -1 -22 6 -32 15 -16 14 -18 14 -24 -5 -7 -24 0 -41 18 -41 7 0 6 4 -3
10 -11 7 -1 9 33 7 57 -5 75 -17 24 -17 -47 0 -67 -9 -67 -29 -1 -23 -39 -72
-40 -50 0 9 7 19 15 23 16 6 20 43 6 64 -4 7 -21 17 -37 22 -29 8 -29 8 9 9
20 1 37 6 37 11 0 10 -8 11 -68 15 -15 1 -48 5 -74 9 -29 4 -49 3 -53 -4 -4
-6 8 -10 32 -10 29 -1 34 -3 21 -10 -11 -7 -26 -7 -43 0 -37 14 -48 12 -41 -6
5 -12 2 -15 -10 -10 -13 5 -16 1 -12 -23 2 -17 0 -27 -5 -24 -12 7 -1 -48 25
-119 19 -55 40 -73 51 -45 3 6 5 -4 5 -23 0 -19 -2 -30 -4 -24 -6 13 -44 7
-44 -7 0 -5 3 -9 8 -10 96 -10 98 -9 98 49 -1 37 -5 49 -21 56 -28 12 -69 13
-77 1 -4 -6 -8 -2 -8 8 0 14 5 17 19 12 11 -3 22 -1 26 5 3 6 10 8 15 5 5 -3
11 -1 15 5 3 5 1 10 -6 10 -6 0 -1 9 12 19 20 16 22 23 13 38 -10 16 -8 19 7
19 11 0 19 -7 19 -17 0 -17 26 -34 45 -30 6 1 5 -3 -2 -10 -10 -10 -16 -9 -29
2 -10 8 -15 9 -11 3 4 -7 0 -14 -8 -18 -8 -3 -15 -11 -15 -17 0 -7 3 -9 6 -6
4 3 16 1 28 -5 20 -11 20 -11 1 -19 -19 -7 -19 -8 1 -8 23 -1 48 21 37 32 -3
4 2 7 12 7 17 0 17 -2 2 -17 -13 -16 -13 -20 0 -32 9 -8 13 -27 11 -50 -3 -33
-1 -36 22 -36 22 0 25 5 28 45 4 48 18 74 35 63 5 -3 7 -2 4 4 -4 6 10 27 30
47 28 28 39 33 50 25 19 -16 16 -6 -8 36 l-22 37 21 20 c19 19 22 20 36 5 11
-11 13 -18 5 -22 -6 -4 -9 -15 -6 -25 3 -13 0 -17 -9 -13 -8 3 -14 1 -14 -5 0
-13 68 -72 83 -72 7 0 1 9 -13 20 -21 15 -25 27 -25 71 0 44 -4 55 -25 71 -24
18 -66 16 -55 -2 3 -4 -4 -10 -15 -13 -11 -3 -20 -1 -20 4 0 5 5 9 10 9 6 0
10 5 10 10 0 6 -14 10 -31 10 -28 0 -30 -2 -18 -17z"/>
<path d="M1233 1546 c4 -9 1 -13 -7 -10 -13 5 -53 -32 -44 -41 3 -3 28 -7 57
-8 28 -1 51 -6 51 -11 0 -5 -23 -6 -51 -3 -44 5 -50 4 -47 -11 2 -9 9 -16 15
-15 6 1 14 -4 17 -13 3 -8 2 -12 -4 -9 -6 3 -10 1 -10 -4 0 -18 28 -12 33 7 4
13 5 11 6 -5 1 -17 -5 -23 -19 -23 -11 0 -23 7 -26 15 -4 8 -10 12 -15 9 -5
-3 -9 4 -9 16 0 36 -19 60 -48 61 -37 1 -69 14 -55 22 7 4 14 3 18 -3 8 -13
85 -13 85 0 0 10 -8 12 -69 15 -15 1 -47 5 -69 9 -24 3 -43 2 -47 -4 -4 -6 7
-10 27 -10 26 -1 30 -3 16 -10 -11 -7 -26 -7 -43 0 -52 20 -66 1 -15 -20 17
-7 33 -17 36 -22 4 -6 -3 -5 -14 1 -11 6 -32 15 -45 20 -23 9 -25 8 -23 -18 1
-17 -3 -28 -11 -28 -9 0 -11 7 -8 16 5 12 3 13 -6 4 -8 -8 -9 -29 -4 -70 5
-32 8 -69 7 -83 -1 -25 -1 -25 9 2 7 19 7 43 1 73 -5 25 -6 45 -1 45 5 0 9 -8
9 -19 0 -32 21 -81 33 -74 5 3 7 1 3 -5 -9 -14 14 -62 30 -62 7 0 15 6 17 13
3 6 6 -2 6 -19 1 -28 -1 -30 -29 -26 -16 2 -30 0 -30 -6 0 -10 89 -24 102 -16
4 3 5 24 2 48 -4 26 -2 46 4 50 7 4 1 17 -15 33 -25 24 -26 26 -9 39 12 8 17
21 14 37 -3 17 0 23 14 24 15 2 17 -4 14 -30 -3 -18 -3 -27 0 -21 3 7 14 10
24 7 11 -3 17 -9 14 -14 -3 -5 -9 -7 -14 -4 -14 9 -49 -17 -43 -32 4 -11 9
-10 20 4 8 10 12 13 9 6 -4 -6 -1 -15 5 -19 8 -4 7 -9 -2 -16 -10 -7 -4 -8 18
-4 36 6 43 -4 43 -66 0 -35 2 -39 23 -36 18 2 23 10 25 48 3 44 24 80 46 80 6
0 5 -4 -3 -9 -11 -7 -11 -9 0 -14 10 -4 9 -6 -3 -6 -25 -1 -23 -31 1 -31 17 0
19 6 16 37 -3 31 2 42 31 71 l34 34 35 -31 c51 -45 66 -38 20 9 -21 22 -44 40
-50 40 -25 0 -34 22 -18 46 10 16 11 24 4 24 -7 0 -10 4 -6 10 3 5 16 0 30
-12 18 -15 23 -28 19 -44 -8 -32 7 -54 17 -26 12 31 -8 77 -37 91 -21 9 -30 8
-51 -9 -14 -11 -29 -17 -32 -14 -3 4 0 9 7 11 22 8 13 23 -14 23 -19 0 -25 -4
-21 -14z"/>
<path d="M1821 1544 c12 -15 11 -16 -8 -10 -12 4 -24 2 -28 -4 -3 -6 -10 -8
-15 -5 -5 3 -33 7 -62 9 -30 3 -70 7 -90 11 -22 4 -38 3 -42 -4 -5 -7 6 -11
31 -12 29 0 33 -2 18 -8 -11 -5 -32 -4 -47 1 -67 23 -86 -51 -43 -168 25 -69
46 -91 58 -61 3 6 6 -2 6 -19 1 -28 -2 -31 -24 -26 -17 3 -25 0 -25 -10 0 -10
13 -13 48 -12 26 1 49 2 52 3 3 0 4 28 3 60 -1 40 3 65 13 78 9 10 13 13 10 6
-4 -6 3 -15 15 -18 17 -6 19 -9 8 -17 -10 -7 -6 -8 14 -4 29 7 27 11 31 -74 1
-17 7 -26 22 -28 19 -3 23 3 29 45 8 52 21 76 38 66 5 -3 7 -2 4 4 -4 6 10 27
30 47 30 30 39 34 51 23 12 -9 11 -4 -3 23 -10 19 -22 38 -27 41 -4 3 3 16 17
29 22 21 28 22 35 10 11 -17 3 -51 -13 -62 -8 -4 -5 -13 6 -26 16 -17 16 -20
2 -25 -10 -4 -15 -20 -15 -47 0 -52 16 -52 25 1 6 32 10 39 23 34 43 -17 45
-17 19 4 -23 20 -26 27 -21 60 7 45 -8 79 -39 90 -27 10 -49 3 -40 -13 3 -6 3
-8 -2 -4 -4 4 -14 3 -22 -3 -9 -9 -13 -8 -13 0 0 6 5 11 11 11 5 0 7 5 4 10
-3 6 -18 10 -32 10 -22 0 -24 -2 -12 -16z"/>
<path d="M2147 1537 c-17 -7 -26 -16 -22 -25 4 -10 0 -12 -11 -8 -13 5 -16 1
-12 -23 2 -17 1 -28 -4 -25 -12 7 -10 -5 8 -66 12 -40 18 -50 26 -39 7 10 8 8
3 -8 -10 -37 3 -63 32 -63 33 0 25 -24 -10 -28 -24 -3 -39 -21 -19 -23 98 -10
99 -10 97 56 -1 40 -8 62 -22 79 -20 23 -20 23 -1 35 12 8 18 20 15 31 -4 15
10 30 28 30 1 0 1 -15 -1 -32 -1 -18 0 -28 2 -22 3 7 14 10 24 7 11 -3 17 -9
15 -14 -3 -4 -11 -6 -18 -3 -7 2 -21 -2 -32 -10 -19 -14 -19 -15 8 -25 15 -6
27 -16 27 -23 0 -9 3 -8 10 2 7 11 10 11 10 2 0 -7 4 -11 9 -7 13 7 23 -29 19
-68 -2 -25 1 -33 16 -35 18 -4 19 2 14 109 -7 133 -11 147 -47 155 -63 14 -74
22 -21 17 30 -4 58 -11 62 -17 5 -6 8 -7 8 -1 0 25 -21 37 -76 41 -32 2 -70 6
-84 8 -14 2 -38 -1 -53 -7z"/>
<path d="M766 1151 c-8 -12 20 -22 42 -15 14 5 14 3 -2 -7 -16 -10 -25 -8 -53
6 -59 32 -104 -10 -90 -85 5 -23 1 -33 -20 -50 -17 -13 -21 -20 -11 -20 16 0
78 57 78 72 0 13 -18 9 -24 -4 -3 -7 -4 -4 -1 7 2 11 0 26 -5 34 -6 10 -3 19
8 27 14 10 20 9 35 -3 22 -20 21 -32 -3 -63 -22 -29 -26 -48 -7 -31 11 8 22 3
50 -25 20 -20 34 -42 30 -48 -3 -6 -3 -8 2 -4 15 14 35 -14 35 -51 0 -45 12
-64 36 -59 14 2 18 13 19 46 1 40 18 67 36 56 4 -2 9 3 13 11 3 8 15 15 26 15
11 0 20 4 20 10 0 13 -32 28 -47 23 -7 -3 -13 0 -13 5 0 5 9 12 20 15 13 3 18
1 13 -5 -3 -6 -1 -8 4 -5 6 4 8 18 5 32 -3 20 -1 24 11 19 9 -3 13 -12 11 -19
-3 -7 3 -22 13 -32 11 -11 17 -25 15 -33 -3 -7 0 -10 6 -6 5 3 12 0 15 -8 4
-10 -4 -16 -26 -20 -31 -6 -32 -7 -32 -58 l1 -53 52 -1 c40 -1 52 2 52 14 0
10 -8 13 -25 10 -22 -5 -25 -2 -24 26 0 17 3 25 6 19 11 -28 32 -10 52 45 27
72 34 108 26 143 -4 19 -11 26 -21 22 -10 -4 -12 0 -8 10 8 21 -40 30 -126 23
-36 -2 -73 -5 -82 -5 -10 -1 -18 -6 -18 -12 0 -8 19 -10 63 -6 38 4 54 2 42
-3 -11 -5 -32 -9 -47 -9 -15 -1 -34 -8 -42 -17 -20 -20 -21 -63 -1 -70 8 -4
15 -13 15 -21 0 -11 -6 -7 -20 10 -11 14 -20 32 -20 40 0 18 -21 27 -61 27
-48 0 -32 15 19 17 35 2 43 0 32 -8 -13 -9 -13 -10 0 -6 25 6 23 35 -6 62 -27
25 -58 33 -68 16z"/>
<path d="M1350 1150 c0 -5 8 -14 18 -19 15 -9 15 -10 1 -11 -9 0 -22 7 -29 15
-13 16 -47 20 -67 7 -18 -11 -34 -62 -28 -83 10 -29 26 -11 23 23 -2 23 3 34
22 46 14 9 22 12 17 7 -4 -4 0 -18 8 -31 12 -19 12 -24 0 -34 -21 -17 -19 -37
4 -50 11 -5 29 -23 41 -40 19 -27 19 -29 3 -24 -17 5 -17 5 0 -6 9 -6 21 -8
27 -5 14 9 30 -30 30 -74 0 -37 2 -41 25 -41 23 0 25 3 25 50 0 49 5 55 38 51
13 -2 17 25 5 32 -5 2 -2 2 5 1 6 -2 12 2 12 8 0 7 4 7 14 -1 9 -8 16 -8 20
-2 5 8 -14 19 -46 27 -5 1 -11 2 -15 3 -5 2 1 6 12 10 12 5 23 4 28 -3 5 -6 5
4 2 21 -5 27 -4 32 9 27 9 -3 16 -17 16 -30 0 -14 6 -27 14 -30 9 -3 12 -12 9
-21 -4 -11 -2 -14 5 -9 8 5 10 2 6 -8 -3 -8 -13 -18 -23 -21 -13 -4 -17 -17
-16 -58 l0 -52 50 0 c30 0 48 4 45 10 -3 6 -15 10 -27 10 -19 -1 -23 4 -22 30
0 16 3 24 6 18 2 -7 12 -13 21 -13 12 0 25 23 45 83 l27 82 -5 -60 c-3 -33 -1
-66 4 -74 6 -10 9 -3 8 25 0 21 3 60 8 87 6 34 4 47 -4 47 -7 0 -10 -4 -7 -8
3 -5 -1 -9 -7 -9 -8 0 -12 11 -11 28 1 21 -2 26 -14 22 -10 -4 -13 -2 -8 5 13
22 -45 34 -134 28 -47 -3 -86 -5 -87 -6 -2 0 -3 -5 -3 -11 0 -8 18 -10 58 -6
34 3 49 2 37 -3 -11 -5 -30 -9 -42 -9 -12 -1 -29 -8 -37 -17 -20 -19 -21 -74
-3 -74 8 0 14 -7 14 -15 0 -21 -10 -19 -25 6 -12 19 -15 20 -31 5 -16 -14 -19
-14 -37 0 -18 15 -18 15 3 9 27 -7 53 27 53 71 0 33 -22 60 -39 49 -7 -3 -8 0
-5 9 5 12 0 16 -20 16 -14 0 -26 -4 -26 -10z"/>
<path d="M1935 1150 c-3 -5 -1 -10 4 -10 6 0 11 -4 11 -9 0 -5 -9 -7 -20 -4
-11 3 -20 9 -20 14 0 15 -34 10 -59 -7 -20 -15 -23 -23 -19 -66 5 -43 2 -50
-21 -68 -14 -11 -21 -20 -14 -20 15 0 83 59 83 72 0 6 -7 7 -16 4 -8 -3 -12
-2 -9 4 3 5 2 17 -3 27 -7 12 -5 21 5 32 14 13 17 12 34 -10 17 -23 17 -25 -2
-57 -22 -38 -24 -46 -8 -36 12 7 59 -15 59 -28 0 -5 13 -20 29 -34 24 -20 31
-34 33 -72 3 -43 6 -47 30 -50 25 -3 26 -2 21 36 -5 40 17 79 39 66 6 -4 8 2
4 17 -3 13 -3 19 -1 13 6 -12 55 -6 55 7 0 12 -39 31 -50 24 -6 -3 -10 -2 -10
3 0 15 28 22 34 9 3 -7 5 -6 5 3 -3 37 2 49 15 44 8 -3 12 -13 9 -23 -3 -12 4
-25 18 -35 13 -9 19 -16 14 -16 -6 0 -16 -9 -23 -20 -12 -20 -12 -20 12 -5 16
11 26 13 31 5 3 -6 11 -8 16 -5 5 4 9 1 9 -5 0 -6 -10 -11 -22 -10 -52 4 -63
-7 -63 -63 l1 -52 52 -1 c40 -1 52 2 52 14 0 10 -8 13 -25 10 -16 -4 -25 -1
-25 8 0 7 -2 18 -3 26 -2 7 -2 10 0 6 3 -5 13 -8 22 -8 13 0 26 19 45 68 20
52 25 59 22 32 -2 -19 1 -48 8 -63 9 -24 11 -15 12 65 0 51 -1 81 -3 66 -5
-31 -20 -38 -20 -10 1 56 -3 71 -18 66 -11 -5 -13 -2 -9 9 8 21 -40 30 -126
23 -36 -2 -73 -5 -82 -5 -10 -1 -18 -6 -18 -12 0 -8 18 -10 58 -6 54 5 46 -3
-19 -17 -21 -5 -29 -15 -37 -43 -6 -24 -10 -30 -11 -17 -1 25 -19 34 -68 34
-49 0 -39 6 22 14 36 5 46 4 35 -3 -11 -8 -11 -11 -2 -11 18 0 27 29 13 43 -8
8 -14 8 -23 -1 -7 -7 -19 -12 -27 -12 -12 1 -11 4 4 12 29 16 29 16 15 33 -14
17 -46 20 -55 5z"/>
<path d="M97 1132 c-16 -18 -22 -40 -19 -76 2 -15 5 -16 17 -6 11 9 12 17 3
33 -9 17 -7 24 12 39 12 10 27 18 34 18 7 0 6 -3 -2 -9 -11 -6 -10 -11 3 -25
16 -16 16 -18 0 -36 -10 -11 -21 -18 -24 -15 -4 2 -24 -14 -45 -36 -46 -46
-32 -52 19 -8 19 17 33 24 29 16 -4 -11 -1 -14 13 -11 21 6 53 -24 57 -53 2
-10 10 -17 18 -15 23 4 36 -19 40 -68 3 -40 6 -45 27 -45 22 0 25 4 25 45 1
36 5 45 21 48 23 5 46 33 37 47 -3 5 1 4 10 -3 10 -8 18 -9 22 -3 8 12 -30 34
-44 26 -6 -3 -10 -2 -10 3 0 15 28 22 34 9 3 -7 3 3 0 22 -4 28 -2 32 11 27 9
-3 18 -6 20 -6 2 0 1 -8 -2 -19 -3 -12 3 -24 18 -35 13 -9 19 -16 14 -16 -6 0
-16 -10 -24 -22 -13 -21 -13 -22 2 -9 13 10 17 10 17 1 0 -6 -8 -14 -17 -16
-14 -4 -18 -16 -18 -57 l0 -52 53 -2 c39 -1 52 2 52 13 0 9 -11 14 -30 14 -26
0 -30 4 -30 28 1 24 2 25 11 9 10 -17 12 -17 29 -2 12 11 17 26 14 42 -3 14
-1 22 5 19 9 -6 22 26 36 88 6 27 5 28 -12 15 -16 -12 -17 -12 -6 1 16 21 13
59 -4 53 -8 -3 -13 0 -11 7 2 7 -3 15 -9 17 -7 3 -13 0 -13 -7 0 -6 -4 -9 -8
-6 -4 2 -14 1 -22 -4 -12 -8 -12 -10 2 -15 13 -5 15 -10 5 -20 -9 -10 -14 -6
-22 19 -9 28 -8 32 15 38 18 5 -142 3 -167 -2 -2 0 -3 -5 -3 -11 0 -8 18 -10
58 -6 34 3 49 2 37 -3 -11 -5 -30 -9 -42 -9 -12 -1 -29 -8 -37 -17 -20 -19
-21 -74 -3 -74 8 0 14 -7 14 -15 0 -23 -10 -18 -29 13 -12 18 -18 22 -18 11 0
-9 -6 -19 -12 -21 -20 -8 -38 2 -37 20 0 11 2 12 6 5 9 -23 35 -15 28 7 -4 14
-2 20 6 18 7 -2 15 5 17 15 2 9 -2 17 -8 17 -6 0 -9 -3 -7 -7 3 -5 -15 -6 -39
-4 -24 1 -44 7 -44 12 0 4 6 6 13 4 6 -3 31 -2 54 2 34 7 41 11 33 23 -7 12
-12 12 -22 2 -6 -6 -18 -12 -26 -12 -9 0 -6 7 9 20 13 10 19 19 12 20 -6 0
-15 -4 -18 -10 -9 -15 -41 -12 -55 5 -17 20 -53 19 -73 -3z"/>
<path d="M46 739 c-32 -25 -35 -76 -6 -110 16 -20 21 -22 29 -9 6 8 13 11 17
7 12 -12 -21 -38 -39 -31 -9 3 -17 10 -17 16 0 5 -4 7 -8 4 -5 -3 -9 8 -10 25
0 17 -3 33 -6 36 -2 3 -5 -52 -5 -121 -1 -120 0 -126 19 -126 17 0 20 7 20 43
0 44 27 86 45 70 4 -5 5 -3 2 4 -10 16 52 76 70 68 11 -4 13 -1 9 11 -4 9 9 3
29 -15 42 -37 69 -42 36 -7 -17 18 -22 32 -17 49 8 35 -11 84 -37 91 -35 9
-50 7 -44 -6 3 -8 -5 -14 -20 -15 -18 -1 -22 2 -14 10 32 32 -13 37 -53 6z"/>
<path d="M631 734 c-16 -19 -25 -23 -35 -15 -7 6 -51 13 -98 17 -68 5 -92 3
-117 -10 -30 -16 -35 -28 -34 -88 0 -30 -17 -20 -18 10 0 23 -1 24 -8 7 -4
-11 -4 -36 2 -55 5 -19 7 -52 4 -75 -5 -39 -4 -40 8 -11 8 18 9 41 5 62 -13
56 4 38 28 -31 22 -59 31 -70 55 -66 4 0 7 -7 7 -18 0 -14 -6 -17 -25 -13 -18
3 -25 0 -25 -11 0 -13 11 -16 53 -14 l52 2 -3 47 c-3 36 0 49 15 58 16 10 16
10 -4 5 -13 -4 -28 -3 -35 2 -19 11 -62 10 -71 -2 -5 -6 -7 -4 -4 5 2 9 14 14
31 13 17 -1 24 2 20 9 -5 7 -2 8 6 3 9 -6 12 -4 8 7 -4 8 2 20 14 27 12 8 18
19 15 31 -3 11 1 21 9 24 8 3 15 0 15 -7 1 -7 3 -22 4 -35 1 -12 -4 -26 -13
-31 -18 -10 -7 -32 12 -25 7 3 16 -2 20 -11 3 -9 9 -14 14 -11 20 12 37 -15
36 -59 -1 -44 0 -46 25 -43 23 3 26 8 29 48 3 38 10 52 50 92 26 26 53 48 60
48 16 0 15 11 -4 38 -14 21 -14 25 0 47 11 17 13 25 5 25 -7 0 -9 3 -6 7 9 8
47 -26 47 -43 0 -7 -7 -20 -16 -29 -15 -15 -15 -18 2 -38 26 -30 46 -45 69
-51 14 -4 11 2 -11 19 -29 22 -31 28 -27 69 4 35 1 48 -16 65 -25 25 -53 27
-71 6 -7 -8 -20 -15 -29 -15 -14 1 -14 2 1 14 10 7 15 16 11 19 -14 14 -40 6
-62 -19z"/>
<path d="M1204 728 l-27 -33 59 -11 c55 -11 56 -12 19 -13 -22 -1 -47 -6 -55
-11 -14 -9 -13 -11 9 -14 15 -2 26 -16 13 -16 -7 0 -12 -4 -12 -10 0 -5 7 -10
15 -10 8 0 15 5 15 11 0 5 5 7 12 3 8 -5 6 -11 -6 -20 -22 -15 -46 -8 -46 15
0 11 -6 7 -18 -11 -18 -30 -35 -38 -26 -13 4 8 10 15 15 15 15 0 10 58 -7 74
-8 9 -25 16 -37 17 -12 0 -31 4 -42 9 -12 5 3 6 38 3 39 -4 57 -2 57 6 0 6 -6
11 -12 11 -7 1 -51 3 -98 5 -52 2 -73 1 -55 -4 24 -6 27 -9 13 -15 -9 -4 -26
-2 -37 4 -29 15 -50 1 -26 -17 23 -16 12 -17 -17 -2 -19 10 -20 9 -16 -18 3
-20 0 -30 -9 -30 -9 0 -11 7 -8 16 5 12 3 13 -6 4 -8 -8 -9 -29 -4 -70 5 -32
7 -69 6 -83 -1 -23 -1 -23 10 -6 11 17 7 71 -7 113 -5 12 -4 15 3 8 5 -5 15
-29 22 -53 6 -23 16 -40 21 -37 5 3 12 0 16 -6 5 -8 3 -9 -6 -4 -9 6 -10 2 -5
-16 13 -42 27 -53 42 -33 12 16 13 15 13 -12 0 -28 -2 -30 -30 -26 -22 3 -30
0 -30 -11 0 -12 11 -15 53 -14 l52 2 0 52 c0 35 -4 53 -12 53 -7 0 -18 10 -24
23 l-12 22 23 -20 23 -20 -14 23 c-8 12 -18 22 -24 23 -5 0 1 5 14 10 18 7 22
15 19 33 -4 18 0 26 14 29 16 5 18 0 15 -31 -2 -20 -9 -38 -15 -40 -6 -2 -8
-10 -5 -18 4 -12 8 -12 19 3 8 10 14 14 13 8 -3 -17 13 -45 22 -39 20 12 39
-19 39 -62 0 -40 2 -44 25 -44 23 0 25 3 25 48 0 47 20 82 46 82 5 0 2 -5 -6
-11 -12 -8 -12 -10 -1 -7 8 2 15 12 17 22 4 26 42 59 61 52 11 -5 14 -2 8 11
-4 13 2 10 22 -8 15 -15 39 -32 53 -39 21 -10 20 -7 -8 18 -29 27 -31 33 -22
57 21 56 -46 120 -85 82 -9 -10 -22 -17 -28 -17 -8 0 -7 4 1 12 18 18 14 28
-12 28 -15 0 -35 -12 -52 -32z"/>
<path d="M1810 745 c-14 -17 -5 -35 18 -36 11 0 13 -2 4 -6 -7 -3 -21 2 -32
12 -17 15 -19 15 -25 -4 -3 -12 -3 -26 2 -33 4 -7 7 -24 6 -38 l-2 -25 8 25
c8 23 16 12 12 -17 -1 -7 5 -13 13 -13 8 0 17 6 19 13 4 7 6 6 6 -4 1 -24 -29
-32 -49 -14 -17 15 -19 14 -34 -7 -9 -12 -16 -16 -16 -9 0 8 7 19 16 26 12 8
15 20 10 39 -7 27 -21 36 -86 54 -30 8 -27 9 23 4 39 -3 57 -1 57 7 0 6 -6 11
-12 11 -7 0 -47 3 -88 6 -45 3 -87 1 -104 -6 -28 -10 -28 -11 -10 -25 18 -14
17 -15 -8 -9 l-27 6 3 -59 c2 -36 14 -81 30 -118 26 -56 28 -59 42 -41 13 19
14 18 14 -11 0 -27 -3 -30 -25 -25 -18 3 -25 0 -25 -11 0 -11 12 -14 51 -13
l51 1 2 53 c1 51 1 52 -32 58 -30 6 -31 8 -15 19 10 8 15 16 11 20 -3 4 2 15
13 26 10 10 16 25 13 32 -3 8 2 17 11 20 12 5 14 1 10 -26 -3 -18 -2 -27 2
-21 5 6 17 8 27 4 14 -4 16 -9 8 -14 -7 -4 -12 -5 -12 -1 0 3 -9 1 -20 -5 -11
-6 -20 -18 -20 -26 0 -8 -4 -12 -10 -9 -5 3 -10 2 -10 -4 0 -5 9 -9 19 -8 11
0 17 5 15 9 -3 4 2 8 10 8 9 0 16 -7 16 -16 0 -9 6 -14 13 -11 26 10 40 -10
40 -57 -1 -42 1 -46 22 -46 21 0 25 6 31 48 7 52 21 75 37 65 5 -3 7 -2 4 4
-8 12 50 73 69 73 19 0 17 13 -6 42 l-19 25 23 22 c19 18 25 19 35 8 12 -15 5
-47 -13 -59 -17 -11 26 -60 65 -76 l34 -13 -31 25 c-29 23 -31 30 -27 70 4 35
1 48 -16 65 -24 24 -48 26 -75 6 -24 -18 -52 -19 -62 -3 -4 7 -3 8 5 4 15 -10
53 3 46 15 -9 14 -41 11 -55 -6z"/>
<path d="M2136 729 c-19 -12 -19 -12 -1 -25 23 -17 12 -18 -17 -3 -19 10 -20
9 -16 -19 2 -17 1 -29 -4 -26 -11 7 -10 -2 9 -69 11 -41 19 -54 25 -45 6 9 7
5 3 -10 -8 -27 10 -52 37 -52 14 0 18 -5 14 -16 -3 -9 -6 -17 -6 -18 0 -2 -11
-1 -25 2 -18 3 -25 0 -25 -11 0 -12 11 -15 53 -14 l52 2 0 53 c0 40 -3 51 -14
47 -11 -4 -11 -2 -3 8 9 10 7 18 -7 34 -18 19 -18 20 1 32 12 8 18 19 15 31
-4 15 10 30 26 30 9 0 -3 -74 -13 -80 -9 -6 -9 -9 0 -15 7 -4 16 -2 20 5 5 8
10 3 14 -14 4 -15 11 -24 17 -21 21 13 40 -18 37 -59 -2 -33 1 -41 16 -44 18
-4 19 2 14 109 -7 133 -11 147 -47 155 -14 3 -39 9 -56 14 l-30 10 34 -5 c18
-3 46 -5 62 -5 18 0 29 -6 32 -17 3 -13 5 -14 6 -3 2 33 -16 40 -110 45 -62 4
-101 1 -113 -6z"/>
<path d="M185 351 c-8 -14 12 -23 36 -16 15 5 19 4 15 -4 -11 -17 -52 -13 -71
6 -40 39 -106 -26 -84 -84 10 -26 8 -30 -23 -56 -21 -18 -26 -26 -13 -21 11 4
35 21 53 38 24 22 31 26 26 12 -5 -13 -4 -17 4 -12 14 8 47 -13 70 -45 14 -21
14 -22 -2 -16 -11 4 -15 3 -11 -4 4 -6 14 -8 22 -5 23 9 42 -23 43 -71 0 -39
2 -43 25 -43 23 0 25 4 25 45 0 34 5 47 20 55 11 6 20 8 20 5 0 -3 6 0 14 7 7
7 11 20 8 28 -5 13 -3 13 10 2 10 -8 19 -9 22 -3 3 5 2 11 -3 13 -5 1 -12 19
-15 40 -5 31 -3 35 13 31 13 -3 17 -11 13 -29 -3 -19 0 -26 16 -31 21 -5 21
-5 2 -26 -15 -15 -17 -24 -8 -34 8 -10 8 -12 -3 -8 -11 4 -14 -7 -16 -49 l-1
-54 54 0 c41 1 54 4 54 15 0 11 -8 14 -28 11 -25 -4 -28 -1 -30 26 -2 28 -1
29 11 12 12 -17 14 -17 27 -1 17 21 22 45 9 45 -6 0 -7 5 -4 10 4 6 10 8 15 5
13 -8 38 85 32 123 -4 28 -7 32 -26 26 -17 -6 -19 -4 -9 7 23 29 -20 41 -115
34 -82 -7 -136 -24 -81 -26 30 -2 28 -2 64 6 21 4 26 3 15 -3 -8 -6 -30 -12
-49 -15 -19 -3 -38 -12 -42 -19 -12 -17 -11 -68 0 -68 5 0 11 -7 15 -15 9 -25
-10 -17 -24 11 -14 25 -14 25 -22 4 -9 -25 -42 -23 -44 3 -1 12 -1 13 3 2 5
-18 19 -20 29 -4 3 6 1 15 -6 19 -8 5 -4 9 11 13 13 4 20 9 16 13 -4 4 -2 13
4 20 13 16 -2 46 -33 68 -25 18 -44 20 -53 7z"/>
<path d="M765 351 c-3 -6 3 -14 12 -20 16 -9 16 -10 2 -11 -9 0 -22 7 -29 15
-18 21 -46 19 -71 -6 -17 -17 -20 -30 -16 -65 4 -41 2 -47 -27 -69 -37 -30
-24 -33 21 -5 44 26 59 56 38 76 -18 18 -19 36 -3 52 9 9 17 5 35 -15 22 -23
30 -25 74 -20 33 4 47 3 43 -4 -3 -6 -29 -9 -56 -8 -40 2 -53 -1 -64 -16 -18
-24 -18 -35 0 -35 17 0 58 -49 51 -60 -3 -5 0 -12 6 -16 8 -4 9 -3 5 4 -11 19
9 14 27 -6 10 -10 17 -32 17 -49 0 -46 9 -63 35 -63 20 0 22 5 21 45 -1 47 14
68 41 58 12 -5 19 16 13 42 -1 5 8 1 19 -9 18 -16 21 -17 21 -3 0 9 -5 19 -11
22 -6 4 -8 14 -4 23 5 14 3 14 -13 -1 -21 -19 -32 -22 -32 -7 0 6 7 10 15 10
8 0 17 11 21 24 3 15 11 23 19 20 7 -3 11 -14 8 -24 -3 -12 3 -23 15 -31 12
-7 18 -19 14 -27 -3 -10 -1 -13 6 -8 7 4 12 2 12 -4 0 -6 5 -8 12 -4 7 4 8 3
4 -4 -9 -16 -46 -15 -46 0 0 6 -3 8 -6 5 -4 -4 -1 -13 5 -21 10 -12 9 -14 -6
-10 -16 4 -18 -1 -17 -48 l2 -53 51 -2 c41 -2 51 1 51 14 0 11 -7 14 -25 11
-22 -5 -25 -2 -24 21 0 14 3 20 6 14 10 -25 24 -12 49 44 30 68 42 129 23 118
-8 -6 -10 -4 -4 6 17 26 13 51 -7 46 -10 -3 -18 -1 -18 4 0 5 6 9 13 9 6 1 -1
8 -17 16 -23 13 -45 15 -115 8 -47 -4 -89 -7 -93 -6 -5 1 -8 -2 -8 -8 0 -5 -6
-7 -14 -4 -8 3 -17 1 -21 -5 -3 -6 -11 -11 -18 -11 -6 0 -2 7 9 15 19 15 19
15 0 30 -23 17 -42 19 -51 6z"/>
<path d="M1269 331 c-20 -16 -24 -28 -22 -68 2 -41 -2 -51 -25 -71 -27 -23
-27 -23 -2 -11 14 6 38 23 53 38 20 18 26 21 22 8 -5 -12 -3 -16 7 -12 9 4 35
-15 66 -47 46 -47 52 -58 52 -95 0 -39 2 -43 25 -43 23 0 25 4 25 44 0 44 19
74 40 61 5 -3 10 0 10 9 0 8 -3 16 -7 19 -5 2 -3 2 4 1 6 -2 14 0 16 4 2 4 3
2 1 -4 -1 -6 4 -11 12 -11 14 0 19 19 8 30 -4 4 -8 22 -10 41 -2 29 0 33 17
29 15 -4 17 -9 9 -19 -9 -9 -6 -18 8 -32 19 -19 19 -22 4 -44 l-16 -23 23 19
c19 17 21 17 15 3 -3 -10 -17 -20 -31 -23 -16 -4 -21 -10 -15 -16 5 -5 8 -29
5 -53 l-4 -43 56 0 c37 0 54 4 52 12 -2 6 -16 11 -30 11 -23 -1 -27 3 -27 29
0 27 1 28 13 11 8 -10 19 -15 24 -12 15 10 22 56 9 61 -6 2 -3 5 6 5 15 1 25
22 42 86 3 11 3 -5 0 -35 -3 -31 0 -67 6 -80 9 -22 10 -21 5 11 -3 19 0 49 6
67 6 17 9 40 7 51 -3 20 -5 20 -32 6 -28 -15 -29 -15 -14 2 8 10 15 26 15 35
0 14 -6 16 -26 12 -24 -6 -25 -5 -7 8 18 14 17 15 -12 27 -29 12 -172 7 -196
-6 -19 -12 19 -20 56 -11 58 13 58 3 1 -11 -26 -7 -51 -18 -55 -24 -11 -18
-10 -67 2 -67 6 0 10 -7 10 -16 0 -12 -6 -10 -21 10 -11 14 -28 26 -37 27 -12
0 -11 3 6 9 17 7 22 17 22 43 0 36 -23 67 -35 47 -9 -15 -51 -12 -69 5 -20 20
-39 19 -67 -4z"/>
<path d="M1851 334 c-20 -15 -23 -23 -19 -66 5 -45 3 -51 -26 -73 -35 -28 -24
-34 14 -8 34 23 59 56 53 67 -3 4 -10 2 -15 -5 -8 -11 -9 -11 -5 1 2 8 0 23
-5 33 -7 14 -4 23 14 37 13 11 28 19 33 19 6 0 4 -3 -3 -6 -10 -4 -10 -10 3
-29 15 -23 14 -27 -5 -53 -25 -36 -25 -40 -2 -34 20 5 52 -25 56 -54 2 -10 10
-17 18 -15 23 4 36 -19 40 -68 3 -40 6 -45 30 -48 26 -3 27 -1 21 31 -6 41 12
81 34 73 9 -4 17 1 20 13 3 13 11 17 24 14 10 -3 19 0 19 6 0 6 -4 11 -10 11
-5 0 -10 8 -11 18 0 10 -3 12 -6 5 -2 -7 -12 -13 -21 -13 -14 1 -13 4 6 19 12
11 22 26 22 35 0 10 6 13 15 10 8 -4 12 -10 9 -15 -9 -16 7 -49 24 -49 10 0
13 -3 7 -8 -5 -4 -17 -16 -25 -27 -13 -18 -13 -19 0 -9 17 13 67 12 62 -2 -2
-5 -8 -8 -13 -6 -18 4 -24 4 -44 -2 -17 -6 -20 -16 -20 -59 l0 -52 53 -2 c41
-2 52 1 52 14 0 11 -7 14 -25 11 -14 -3 -25 -2 -25 3 0 4 -3 16 -7 26 -6 16
-5 17 11 3 16 -13 20 -12 33 5 8 12 11 30 8 45 -4 17 -3 21 4 11 15 -23 36 61
33 132 -2 25 -5 27 -24 21 -19 -6 -21 -5 -11 8 11 12 8 17 -12 28 -20 11 -42
11 -112 2 -49 -7 -96 -12 -105 -13 -10 0 -20 -4 -23 -10 -4 -5 -11 -9 -16 -9
-6 0 -7 5 -4 10 3 6 -5 10 -19 10 -13 0 -31 7 -40 15 -19 19 -36 19 -65 -1z"/>
</g>
</svg>
